<mxfile host="app.diagrams.net" modified="2023-02-13T17:56:12.434Z" agent="5.0 (Windows NT 10.0; Win64; x64) AppleWebKit/537.36 (KHTML, like Gecko) Chrome/109.0.0.0 Safari/537.36" etag="B21Z-PHN3po1u-5O8Ken" version="20.5.3" type="github">
  <diagram id="C5RBs43oDa-KdzZeNtuy" name="Page-1">
    <mxGraphModel dx="1038" dy="588" grid="1" gridSize="10" guides="1" tooltips="1" connect="1" arrows="1" fold="1" page="1" pageScale="1" pageWidth="827" pageHeight="1169" math="0" shadow="0">
      <root>
        <mxCell id="WIyWlLk6GJQsqaUBKTNV-0" />
        <mxCell id="WIyWlLk6GJQsqaUBKTNV-1" parent="WIyWlLk6GJQsqaUBKTNV-0" />
        <mxCell id="I7QPst1Kyn4QcrLPILn4-67" style="edgeStyle=orthogonalEdgeStyle;rounded=0;orthogonalLoop=1;jettySize=auto;html=1;exitX=0.75;exitY=1;exitDx=0;exitDy=0;entryX=0;entryY=0.5;entryDx=0;entryDy=0;" parent="WIyWlLk6GJQsqaUBKTNV-1" source="I7QPst1Kyn4QcrLPILn4-0" target="I7QPst1Kyn4QcrLPILn4-50" edge="1">
          <mxGeometry relative="1" as="geometry" />
        </mxCell>
        <mxCell id="I7QPst1Kyn4QcrLPILn4-0" value="NAS Drive/Shared Drive" style="rounded=0;whiteSpace=wrap;html=1;" parent="WIyWlLk6GJQsqaUBKTNV-1" vertex="1">
          <mxGeometry x="340" y="130" width="120" height="60" as="geometry" />
        </mxCell>
        <mxCell id="I7QPst1Kyn4QcrLPILn4-1" value="User" style="rounded=0;whiteSpace=wrap;html=1;" parent="WIyWlLk6GJQsqaUBKTNV-1" vertex="1">
          <mxGeometry x="340" y="30" width="120" height="60" as="geometry" />
        </mxCell>
        <mxCell id="I7QPst1Kyn4QcrLPILn4-3" value="" style="endArrow=classic;html=1;rounded=0;exitX=0.5;exitY=1;exitDx=0;exitDy=0;entryX=0.5;entryY=0;entryDx=0;entryDy=0;" parent="WIyWlLk6GJQsqaUBKTNV-1" source="I7QPst1Kyn4QcrLPILn4-1" target="I7QPst1Kyn4QcrLPILn4-0" edge="1">
          <mxGeometry width="50" height="50" relative="1" as="geometry">
            <mxPoint x="399.5" y="100" as="sourcePoint" />
            <mxPoint x="399.5" y="150" as="targetPoint" />
          </mxGeometry>
        </mxCell>
        <mxCell id="I7QPst1Kyn4QcrLPILn4-4" value="Upload Input File&lt;br&gt;" style="text;html=1;align=center;verticalAlign=middle;resizable=0;points=[];autosize=1;strokeColor=none;fillColor=none;" parent="WIyWlLk6GJQsqaUBKTNV-1" vertex="1">
          <mxGeometry x="270" y="100" width="110" height="30" as="geometry" />
        </mxCell>
        <mxCell id="I7QPst1Kyn4QcrLPILn4-6" value="(Text/Excel)" style="text;html=1;strokeColor=none;fillColor=none;align=center;verticalAlign=middle;whiteSpace=wrap;rounded=0;" parent="WIyWlLk6GJQsqaUBKTNV-1" vertex="1">
          <mxGeometry x="410" y="100" width="60" height="30" as="geometry" />
        </mxCell>
        <mxCell id="I7QPst1Kyn4QcrLPILn4-41" style="edgeStyle=orthogonalEdgeStyle;rounded=0;orthogonalLoop=1;jettySize=auto;html=1;exitX=0.5;exitY=0;exitDx=0;exitDy=0;entryX=0;entryY=0.5;entryDx=0;entryDy=0;" parent="WIyWlLk6GJQsqaUBKTNV-1" source="I7QPst1Kyn4QcrLPILn4-11" target="I7QPst1Kyn4QcrLPILn4-0" edge="1">
          <mxGeometry relative="1" as="geometry" />
        </mxCell>
        <mxCell id="I7QPst1Kyn4QcrLPILn4-42" style="edgeStyle=orthogonalEdgeStyle;rounded=0;orthogonalLoop=1;jettySize=auto;html=1;exitX=1;exitY=0.5;exitDx=0;exitDy=0;entryX=0.5;entryY=1;entryDx=0;entryDy=0;" parent="WIyWlLk6GJQsqaUBKTNV-1" source="I7QPst1Kyn4QcrLPILn4-11" target="I7QPst1Kyn4QcrLPILn4-0" edge="1">
          <mxGeometry relative="1" as="geometry" />
        </mxCell>
        <mxCell id="I7QPst1Kyn4QcrLPILn4-44" style="edgeStyle=orthogonalEdgeStyle;rounded=0;orthogonalLoop=1;jettySize=auto;html=1;exitX=0;exitY=0.5;exitDx=0;exitDy=0;entryX=0.5;entryY=0;entryDx=0;entryDy=0;" parent="WIyWlLk6GJQsqaUBKTNV-1" source="I7QPst1Kyn4QcrLPILn4-11" target="I7QPst1Kyn4QcrLPILn4-30" edge="1">
          <mxGeometry relative="1" as="geometry" />
        </mxCell>
        <mxCell id="I7QPst1Kyn4QcrLPILn4-11" value="File Watcher&lt;br&gt;File Found? &lt;br&gt;(Thread 1)" style="rhombus;whiteSpace=wrap;html=1;fillColor=#fff2cc;strokeColor=#d6b656;" parent="WIyWlLk6GJQsqaUBKTNV-1" vertex="1">
          <mxGeometry x="170" y="220" width="130" height="120" as="geometry" />
        </mxCell>
        <mxCell id="I7QPst1Kyn4QcrLPILn4-19" value="No (10 Sec Timer)&lt;br&gt;Check Again&amp;nbsp;" style="text;html=1;align=center;verticalAlign=middle;resizable=0;points=[];autosize=1;strokeColor=#b85450;fillColor=#f8cecc;" parent="WIyWlLk6GJQsqaUBKTNV-1" vertex="1">
          <mxGeometry x="280" y="210" width="120" height="40" as="geometry" />
        </mxCell>
        <mxCell id="I7QPst1Kyn4QcrLPILn4-27" value="Yes" style="text;html=1;align=center;verticalAlign=middle;resizable=0;points=[];autosize=1;strokeColor=#82b366;fillColor=#d5e8d4;" parent="WIyWlLk6GJQsqaUBKTNV-1" vertex="1">
          <mxGeometry x="100" y="280" width="40" height="30" as="geometry" />
        </mxCell>
        <mxCell id="I7QPst1Kyn4QcrLPILn4-47" style="edgeStyle=orthogonalEdgeStyle;rounded=0;orthogonalLoop=1;jettySize=auto;html=1;exitX=0.5;exitY=1;exitDx=0;exitDy=0;entryX=0.446;entryY=-0.003;entryDx=0;entryDy=0;entryPerimeter=0;" parent="WIyWlLk6GJQsqaUBKTNV-1" source="I7QPst1Kyn4QcrLPILn4-35" target="I7QPst1Kyn4QcrLPILn4-36" edge="1">
          <mxGeometry relative="1" as="geometry" />
        </mxCell>
        <mxCell id="I7QPst1Kyn4QcrLPILn4-35" value="Convert Excel To&lt;br&gt;Fixed Length Text File" style="rounded=0;whiteSpace=wrap;html=1;" parent="WIyWlLk6GJQsqaUBKTNV-1" vertex="1">
          <mxGeometry x="200" y="360" width="130" height="60" as="geometry" />
        </mxCell>
        <mxCell id="I7QPst1Kyn4QcrLPILn4-55" style="edgeStyle=orthogonalEdgeStyle;rounded=0;orthogonalLoop=1;jettySize=auto;html=1;exitX=1;exitY=0.5;exitDx=0;exitDy=0;entryX=0;entryY=0.5;entryDx=0;entryDy=0;" parent="WIyWlLk6GJQsqaUBKTNV-1" source="I7QPst1Kyn4QcrLPILn4-36" target="I7QPst1Kyn4QcrLPILn4-52" edge="1">
          <mxGeometry relative="1" as="geometry" />
        </mxCell>
        <mxCell id="I7QPst1Kyn4QcrLPILn4-36" value="FTP Text File to&amp;nbsp;&lt;br&gt;Mainframe Server based on Region" style="rounded=0;whiteSpace=wrap;html=1;" parent="WIyWlLk6GJQsqaUBKTNV-1" vertex="1">
          <mxGeometry x="190" y="440" width="130" height="60" as="geometry" />
        </mxCell>
        <mxCell id="I7QPst1Kyn4QcrLPILn4-38" value="Yes" style="text;html=1;align=center;verticalAlign=middle;resizable=0;points=[];autosize=1;strokeColor=#82b366;fillColor=#d5e8d4;" parent="WIyWlLk6GJQsqaUBKTNV-1" vertex="1">
          <mxGeometry x="140" y="360" width="40" height="30" as="geometry" />
        </mxCell>
        <mxCell id="I7QPst1Kyn4QcrLPILn4-39" value="No" style="text;html=1;align=center;verticalAlign=middle;resizable=0;points=[];autosize=1;strokeColor=#b85450;fillColor=#f8cecc;" parent="WIyWlLk6GJQsqaUBKTNV-1" vertex="1">
          <mxGeometry x="110" y="455" width="40" height="30" as="geometry" />
        </mxCell>
        <mxCell id="I7QPst1Kyn4QcrLPILn4-54" style="edgeStyle=orthogonalEdgeStyle;rounded=0;orthogonalLoop=1;jettySize=auto;html=1;exitX=0.5;exitY=1;exitDx=0;exitDy=0;entryX=0;entryY=0.75;entryDx=0;entryDy=0;" parent="WIyWlLk6GJQsqaUBKTNV-1" source="I7QPst1Kyn4QcrLPILn4-30" target="I7QPst1Kyn4QcrLPILn4-36" edge="1">
          <mxGeometry relative="1" as="geometry" />
        </mxCell>
        <mxCell id="I7QPst1Kyn4QcrLPILn4-30" value="Check if file&lt;br&gt;is excel?" style="rhombus;whiteSpace=wrap;html=1;" parent="WIyWlLk6GJQsqaUBKTNV-1" vertex="1">
          <mxGeometry x="20" y="340" width="120" height="120" as="geometry" />
        </mxCell>
        <mxCell id="I7QPst1Kyn4QcrLPILn4-75" style="edgeStyle=orthogonalEdgeStyle;rounded=0;orthogonalLoop=1;jettySize=auto;html=1;exitX=0.5;exitY=1;exitDx=0;exitDy=0;entryX=0.5;entryY=0;entryDx=0;entryDy=0;" parent="WIyWlLk6GJQsqaUBKTNV-1" source="I7QPst1Kyn4QcrLPILn4-50" target="I7QPst1Kyn4QcrLPILn4-58" edge="1">
          <mxGeometry relative="1" as="geometry" />
        </mxCell>
        <mxCell id="I7QPst1Kyn4QcrLPILn4-50" value="Read Success File &amp;amp; Errored Records File From NAS Drive those got loaded via ECG on Batch completion (Thread 2)" style="rounded=0;whiteSpace=wrap;html=1;fillColor=#fff2cc;strokeColor=#d6b656;" parent="WIyWlLk6GJQsqaUBKTNV-1" vertex="1">
          <mxGeometry x="540" y="180" width="180" height="60" as="geometry" />
        </mxCell>
        <mxCell id="I7QPst1Kyn4QcrLPILn4-61" style="edgeStyle=orthogonalEdgeStyle;rounded=0;orthogonalLoop=1;jettySize=auto;html=1;exitX=0.5;exitY=1;exitDx=0;exitDy=0;entryX=0;entryY=0.75;entryDx=0;entryDy=0;" parent="WIyWlLk6GJQsqaUBKTNV-1" source="I7QPst1Kyn4QcrLPILn4-52" target="I7QPst1Kyn4QcrLPILn4-53" edge="1">
          <mxGeometry relative="1" as="geometry" />
        </mxCell>
        <mxCell id="I7QPst1Kyn4QcrLPILn4-52" value="Main Frame Job Will get Triggered" style="rounded=0;whiteSpace=wrap;html=1;" parent="WIyWlLk6GJQsqaUBKTNV-1" vertex="1">
          <mxGeometry x="380" y="440" width="120" height="60" as="geometry" />
        </mxCell>
        <mxCell id="I7QPst1Kyn4QcrLPILn4-53" value="Email Notification" style="rounded=0;whiteSpace=wrap;html=1;" parent="WIyWlLk6GJQsqaUBKTNV-1" vertex="1">
          <mxGeometry x="540" y="554.5" width="180" height="60" as="geometry" />
        </mxCell>
        <mxCell id="I7QPst1Kyn4QcrLPILn4-57" value="File picked Up" style="text;html=1;align=center;verticalAlign=middle;resizable=0;points=[];autosize=1;strokeColor=none;fillColor=none;" parent="WIyWlLk6GJQsqaUBKTNV-1" vertex="1">
          <mxGeometry x="330" y="530" width="100" height="30" as="geometry" />
        </mxCell>
        <mxCell id="I7QPst1Kyn4QcrLPILn4-60" style="edgeStyle=orthogonalEdgeStyle;rounded=0;orthogonalLoop=1;jettySize=auto;html=1;exitX=0.5;exitY=1;exitDx=0;exitDy=0;" parent="WIyWlLk6GJQsqaUBKTNV-1" source="I7QPst1Kyn4QcrLPILn4-58" target="I7QPst1Kyn4QcrLPILn4-59" edge="1">
          <mxGeometry relative="1" as="geometry" />
        </mxCell>
        <mxCell id="I7QPst1Kyn4QcrLPILn4-58" value="DB2 Validation on Input File" style="rounded=0;whiteSpace=wrap;html=1;" parent="WIyWlLk6GJQsqaUBKTNV-1" vertex="1">
          <mxGeometry x="540" y="260" width="180" height="60" as="geometry" />
        </mxCell>
        <mxCell id="I7QPst1Kyn4QcrLPILn4-63" style="edgeStyle=orthogonalEdgeStyle;rounded=0;orthogonalLoop=1;jettySize=auto;html=1;exitX=0.5;exitY=1;exitDx=0;exitDy=0;entryX=0.5;entryY=0;entryDx=0;entryDy=0;" parent="WIyWlLk6GJQsqaUBKTNV-1" source="I7QPst1Kyn4QcrLPILn4-59" target="I7QPst1Kyn4QcrLPILn4-62" edge="1">
          <mxGeometry relative="1" as="geometry" />
        </mxCell>
        <mxCell id="I7QPst1Kyn4QcrLPILn4-59" value="Errored Records File Validation" style="rounded=0;whiteSpace=wrap;html=1;" parent="WIyWlLk6GJQsqaUBKTNV-1" vertex="1">
          <mxGeometry x="540" y="345" width="180" height="60" as="geometry" />
        </mxCell>
        <mxCell id="I7QPst1Kyn4QcrLPILn4-64" style="edgeStyle=orthogonalEdgeStyle;rounded=0;orthogonalLoop=1;jettySize=auto;html=1;exitX=0.5;exitY=1;exitDx=0;exitDy=0;entryX=0.5;entryY=0;entryDx=0;entryDy=0;" parent="WIyWlLk6GJQsqaUBKTNV-1" source="I7QPst1Kyn4QcrLPILn4-62" target="I7QPst1Kyn4QcrLPILn4-53" edge="1">
          <mxGeometry relative="1" as="geometry" />
        </mxCell>
        <mxCell id="I7QPst1Kyn4QcrLPILn4-66" style="edgeStyle=orthogonalEdgeStyle;rounded=0;orthogonalLoop=1;jettySize=auto;html=1;exitX=1;exitY=0.5;exitDx=0;exitDy=0;entryX=1;entryY=0.5;entryDx=0;entryDy=0;" parent="WIyWlLk6GJQsqaUBKTNV-1" source="I7QPst1Kyn4QcrLPILn4-62" target="I7QPst1Kyn4QcrLPILn4-0" edge="1">
          <mxGeometry relative="1" as="geometry">
            <mxPoint x="760" y="100" as="targetPoint" />
            <Array as="points">
              <mxPoint x="790" y="470" />
              <mxPoint x="790" y="160" />
            </Array>
          </mxGeometry>
        </mxCell>
        <mxCell id="I7QPst1Kyn4QcrLPILn4-62" value="Creation of Final Report" style="rounded=0;whiteSpace=wrap;html=1;" parent="WIyWlLk6GJQsqaUBKTNV-1" vertex="1">
          <mxGeometry x="540" y="440" width="180" height="60" as="geometry" />
        </mxCell>
        <mxCell id="I7QPst1Kyn4QcrLPILn4-73" value="" style="endArrow=classic;html=1;rounded=0;exitX=1;exitY=0.5;exitDx=0;exitDy=0;" parent="WIyWlLk6GJQsqaUBKTNV-1" source="I7QPst1Kyn4QcrLPILn4-30" edge="1">
          <mxGeometry width="50" height="50" relative="1" as="geometry">
            <mxPoint x="360" y="340" as="sourcePoint" />
            <mxPoint x="200" y="400" as="targetPoint" />
          </mxGeometry>
        </mxCell>
        <mxCell id="I7QPst1Kyn4QcrLPILn4-74" value="Store Final Report In NAS Drive" style="text;html=1;align=center;verticalAlign=middle;resizable=0;points=[];autosize=1;strokeColor=#6c8ebf;fillColor=#dae8fc;" parent="WIyWlLk6GJQsqaUBKTNV-1" vertex="1">
          <mxGeometry x="515" y="120" width="190" height="30" as="geometry" />
        </mxCell>
        <mxCell id="I7QPst1Kyn4QcrLPILn4-76" value="File Completed" style="text;html=1;align=center;verticalAlign=middle;resizable=0;points=[];autosize=1;strokeColor=none;fillColor=none;" parent="WIyWlLk6GJQsqaUBKTNV-1" vertex="1">
          <mxGeometry x="630" y="510" width="100" height="30" as="geometry" />
        </mxCell>
      </root>
    </mxGraphModel>
  </diagram>
</mxfile>
